<svg xmlns="http://www.w3.org/2000/svg" xmlns:xlink="http://www.w3.org/1999/xlink" viewBox="0 0 47.29 35.68"><defs><style>.cls-1,.cls-2{fill:none;}.cls-2{stroke:#f7f8f8;stroke-miterlimit:10;stroke-width:0.75px;}.cls-3{clip-path:url(#clip-path);}.cls-4{fill:#f7f8f8;}</style><clipPath id="clip-path"><rect id="SVGID" class="cls-1" x="4.86" y="3.64" width="37.57" height="28.39"/></clipPath></defs><title>UA Web AssetsAsset 3 Star Asset</title><g id="Layer_2" data-name="Layer 2"><g id="Layer_1-2" data-name="Layer 1"><path class="cls-2" d="M43.17,7.47a3.36,3.36,0,0,0-3-3.15H32.63a12.55,12.55,0,0,0-9-3.94,12.56,12.56,0,0,0-9,3.94H7.11a3.4,3.4,0,0,0-3,3.15S3.62,15,.54,18c3.24,3.21,3.6,10.24,3.6,10.24a3.39,3.39,0,0,0,3,3.15h7.56a12.57,12.57,0,0,0,9,3.95,12.56,12.56,0,0,0,9-3.95H40.2c1.43,0,2.73-1.4,3-3.15,0,0,.36-7,3.6-10.24C43.68,15,43.17,7.47,43.17,7.47ZM31.86,28.9H31A10.46,10.46,0,0,1,23.65,32a10.46,10.46,0,0,1-7.3-3.13h-.51m.13,0H10.49a3,3,0,0,1-2.6-2.8.78.78,0,0,1,0-.09c0-.1,0-.18,0-.3,0-.31-.07-.67-.13-1.05A17.4,17.4,0,0,0,7,21.51a8.39,8.39,0,0,0-1.88-3.34L4.87,18l.24-.24A8.38,8.38,0,0,0,7,14.14,21.07,21.07,0,0,0,7.71,11c0-.37.09-.71.13-1q0-.18,0-.3V9.54a3,3,0,0,1,2.62-2.76h5.86a10.41,10.41,0,0,1,7.3-3.13A10.41,10.41,0,0,1,31,6.78h5.86a3,3,0,0,1,2.62,2.79.78.78,0,0,1,0,.09,2.36,2.36,0,0,1,0,.3c0,.31.08.65.13,1a23.87,23.87,0,0,0,.69,3.16,8.61,8.61,0,0,0,1.91,3.57l.25.24-.24.22a8.28,8.28,0,0,0-1.89,3.34,18.28,18.28,0,0,0-.74,3.15c-.06.38-.09.74-.12,1.05,0,.12,0,.2,0,.3v.13a3,3,0,0,1-2.61,2.76H31.75"/><polyline class="cls-4" points="26.9 13.48 36.39 13.48 28.3 19.36 31.95 28.89 31.98 28.98 31.86 28.89 23.85 23.07 15.84 28.89 15.72 28.98 15.75 28.89 19.4 19.36 11.31 13.48 20.83 13.48 23.85 3.87"/></g></g></svg>